<?xml version="1.0" encoding="UTF-8"?>
<svg width="14px" height="9px" viewBox="0 0 14 9" version="1.1" xmlns="http://www.w3.org/2000/svg" xmlns:xlink="http://www.w3.org/1999/xlink">
    <!-- Generator: Sketch 50.2 (55047) - http://www.bohemiancoding.com/sketch -->
    <title>icon/arrow/black</title>
    <desc>Created with Sketch.</desc>
    <defs></defs>
    <g id="Page-1" stroke="none" stroke-width="1" fill="none" fill-rule="evenodd">
        <g id="Beat-microsite" transform="translate(-217.000000, -3276.000000)" fill="#6A6A6A">
            <g id="icon/arrow/black" transform="translate(217.000000, 3276.486978)">
                <g id="ios-arrow-thin-right">
                    <path d="M9.89625,7.90466321 C9.760625,7.7761658 9.765,7.57305699 9.89625,7.43626943 L12.80125,4.35233161 L0.35,4.35233161 C0.1575,4.35233161 0,4.20310881 0,4.02072539 C0,3.83834197 0.1575,3.68911917 0.35,3.68911917 L12.80125,3.68911917 L9.900625,0.605181347 C9.77375,0.464248705 9.760625,0.269430052 9.89625,0.140932642 C10.031875,0.0124352332 10.268125,0.00414507772 10.395,0.136787565 C10.395,0.136787565 13.86,3.74300518 13.895,3.78445596 C13.93,3.82590674 14,3.90051813 14,4.02072539 C14,4.14093264 13.93,4.2238342 13.895,4.25699482 C13.86,4.29015544 10.395,7.90466321 10.395,7.90466321 C10.329375,7.96683938 10.2375,8 10.145625,8 C10.05375,8 9.96625,7.96683938 9.89625,7.90466321 Z" id="Shape" fill-rule="nonzero"></path>
                </g>
            </g>
        </g>
    </g>
</svg>