<svg width="224" height="26" xmlns="http://www.w3.org/2000/svg">
    <g fill="none" fill-rule="evenodd">
        <path d="M9.048 9.841l-.812.77s-.91-1.148-2.702-1.148c-2.128 0-3.584 1.862-3.584 3.948s1.456 3.948 3.584 3.948c1.778 0 2.828-1.302 2.828-1.302l.798.812s-1.33 1.61-3.626 1.61c-2.828 0-4.844-2.24-4.844-5.068 0-2.828 2.016-5.068 4.844-5.068 2.296 0 3.514 1.498 3.514 1.498zm4.278 3.346c1.316 0 2.03-.7 2.03-1.778s-.714-1.778-2.03-1.778h-1.442v3.556h1.442zm-2.618 5.124v-9.8h2.548c1.946 0 3.276 1.148 3.276 2.898 0 2.324-2.114 2.758-2.394 2.8l2.716 4.102H15.44l-2.646-4.004h-.91v4.004h-1.176zm9.038-8.68v3.094h4.144v1.12h-4.144v3.346h4.564v1.12h-5.74v-9.8h5.656v1.12h-4.48zm5.524 8.68l3.85-9.8h1.092l3.822 9.8h-1.232l-1.022-2.646h-4.228l-1.022 2.646h-1.26zm4.396-8.12l-1.68 4.354h3.36l-1.68-4.354zm7.12 8.12v-8.68h-2.814v-1.12h6.804v1.12h-2.814v8.68h-1.176zm6.63-8.68v3.094h4.144v1.12h-4.144v3.346h4.564v1.12h-5.74v-9.8h5.656v1.12h-4.48zm9.374-1.12c3.038 0 4.844 2.072 4.844 4.9 0 2.828-1.806 4.9-4.844 4.9h-2.814v-9.8h2.814zm-.07 8.68c2.394 0 3.654-1.694 3.654-3.78s-1.26-3.78-3.654-3.78h-1.568v7.56h1.568zm10.95 1.12v-9.8h2.576c2.016 0 3.15 1.036 3.15 2.674 0 1.33-.966 1.89-1.106 1.918.14.028 1.638.462 1.638 2.408 0 1.708-1.26 2.8-3.192 2.8H63.67zm3.066-1.12c1.4 0 2.016-.756 2.016-1.68 0-.924-.616-1.68-2.016-1.68h-1.89v3.36h1.89zm-1.89-4.452h1.596c1.106 0 1.778-.602 1.778-1.554 0-.952-.672-1.554-1.778-1.554h-1.596v3.108zm9.15 5.572v-3.85l-3.304-5.95h1.316l2.632 4.816 2.59-4.816h1.246l-3.304 5.95v3.85h-1.176z" fill="#1A1A00"/>
        <path d="M96.236.962c-.619 0-1.227.047-1.821.137v4.002l.003-.002v8.311h3.619V5.095c3.758.839 6.572 4.246 6.572 8.324 0 4.708-3.749 8.524-8.373 8.524-4.624 0-8.372-3.816-8.372-8.524 0-2.35.936-4.476 2.447-6.018L87.576 4.62A12.532 12.532 0 0 0 84 13.42c0 6.88 5.478 12.457 12.236 12.457 6.758 0 12.236-5.577 12.236-12.457 0-6.88-5.478-12.457-12.236-12.457" fill="#3C3"/>
        <path d="M126.615 13.42a6.31 6.31 0 0 0-.067-.917h-1.942l-4.034.001v1.821h4.036c-.407 1.891-2.06 3.307-4.04 3.307-2.286 0-4.139-1.886-4.139-4.213 0-2.326 1.853-4.213 4.138-4.213 1.141 0 2.174.471 2.922 1.232l1.35-1.377a5.975 5.975 0 0 0-4.272-1.799c-3.34 0-6.047 2.757-6.047 6.157s2.707 6.157 6.047 6.157 6.048-2.757 6.048-6.157M133.623 13.368c1.474 0 2.412-.785 2.412-1.995v-.034c0-1.28-.905-1.979-2.43-1.979h-2.998v4.008h3.016zm-5.076-5.918h5.226c1.475 0 2.63.444 3.384 1.194.62.648.972 1.535.972 2.575v.035c0 1.96-1.156 3.137-2.781 3.615l3.166 4.52h-2.446l-2.881-4.162h-2.58v4.161h-2.06V7.45zM140.405 7.45h8.694v1.876h-6.634v3.104h5.88v1.893h-5.88v3.19h6.718v1.875h-8.778zM151.376 7.45h8.694v1.876h-6.634v3.104h5.88v1.893h-5.88v3.19h6.717v1.875h-8.777zM162.346 7.45h1.91l6.282 8.255V7.45h2.027v11.938h-1.726l-6.466-8.493v8.493h-2.027zM174.81 7.45h2.06v10.028h6.164v1.91h-8.224zM185.027 19.388h2.06V7.45h-2.06zM202.848 7.45h2.06v4.963h5.595V7.45h2.06v11.938h-2.06v-5.03h-5.595v5.03h-2.06zM218.19 9.395h-3.736V7.45h9.532v1.945h-3.736v9.993h-2.06zM200.912 13.405c0-.312-.023-.618-.067-.917h-1.942v.002h-4.034v1.82h4.036c-.407 1.892-2.061 3.308-4.04 3.308-2.286 0-4.139-1.886-4.139-4.213s1.853-4.213 4.138-4.213c1.141 0 2.174.471 2.922 1.232l1.35-1.377a5.975 5.975 0 0 0-4.272-1.799c-3.34 0-6.047 2.756-6.047 6.157 0 3.4 2.707 6.157 6.047 6.157s6.048-2.757 6.048-6.157" fill="#1A1A00"/>
    </g>
</svg>
