<svg viewBox="0 0 253 62" xmlns="http://www.w3.org/2000/svg">
    <g fill-rule="nonzero" fill="none">
        <path class="letters" fill="#FFF" d="M67 16h5.915l9.176 22.888L91.222 16H97L84.396 46h-4.782zM98 30.593v-.086C98 22.068 104.643 15 114.039 15S130 21.982 130 30.407v.086C130 38.932 123.357 46 113.961 46S98 39.031 98 30.593zm26.343 0v-.086c0-5.824-4.326-10.624-10.402-10.624s-10.284 4.714-10.284 10.524v.086c0 5.827 4.326 10.624 10.399 10.624 6.072 0 10.297-4.698 10.297-10.524h-.01zM134 16h5v30h-5zM144 30.593v-.086C144 21.982 150.515 15 159.74 15c5.687 0 9.097 1.93 12.027 4.671l-3.437 3.897c-2.494-2.228-5.069-3.685-8.613-3.685-5.772 0-10.057 4.671-10.057 10.538v.086c0 5.87 4.241 10.623 10.097 10.623 3.761 0 6.167-1.456 8.786-3.853L172 40.703C168.807 43.957 165.31 46 159.581 46 150.613 46.013 144 39.203 144 30.593zM177 16h22.78v4.712H182.4v7.806h15.405v4.755H182.4v8.015H200V46h-23zM248 16h5v30h-5zM222.081 51.388l1.896-3.765a14.765 14.765 0 0 0 7.925 2.274c4.554 0 7.043-2.274 7.043-6.66v-1.653c-1.856 2.313-4.177 3.966-7.841 3.966-5.27 0-10.104-3.808-10.104-10.22v-.083C221 28.795 225.93 25 231.104 25c3.749 0 6.062 1.696 7.797 3.722v-3.27H244V42.83c0 3.682-.967 6.412-2.822 8.234-2.021 1.983-5.143 2.935-9.148 2.935a19.477 19.477 0 0 1-9.949-2.611zm16.904-16.095v-.082c0-3.56-2.994-5.95-6.534-5.95-3.54 0-6.322 2.357-6.322 5.95v.082c0 3.557 2.823 6 6.322 6 3.5 0 6.534-2.443 6.534-6z"/>
        <path class="dot" fill="#C456E8" d="M56.486 0L32.998 44.13 9.51 0H0l28.242 53.065L32.998 62l4.757-8.935L66 0z"/>
        <path class="icon" fill="#C456E8" d="M39.667 0l-6.669 12.917L26.333 0H17l11.332 21.96L32.998 31l4.667-9.04L49 0zM213 43.5a2.5 2.5 0 1 1-5 0 2.5 2.5 0 0 1 5 0z"/>
    </g>
</svg>
