<svg width="120" height="29" xmlns="http://www.w3.org/2000/svg">
    <g fill-rule="nonzero" fill="none">
        <path class="letters" d="M46.756 22.216l-1.672-1.498a7.247 7.247 0 0 1-4.242 1.314c-4.28.004-7.27-3.24-7.27-7.166v-.04c0-3.922 3.026-7.207 7.307-7.207 4.282 0 7.27 3.243 7.27 7.17v.04a7.167 7.167 0 0 1-1.413 4.281l1.592 1.354-1.572 1.752zm-3.465-3.066l-2.409-2.071 1.573-1.791 2.448 2.228a5.22 5.22 0 0 0 .681-2.65v-.04c0-2.707-1.971-4.937-4.739-4.937-2.767 0-4.698 2.19-4.698 4.897v.04c0 2.707 1.971 4.937 4.739 4.937.841.012 1.671-.2 2.405-.613zM49.896 15.884V7.86h2.449v7.93c0 2.587 1.335 3.96 3.525 3.96s3.503-1.293 3.503-3.861V7.865h2.449v7.905c0 4.158-2.349 6.25-5.992 6.25-3.644 0-5.934-2.094-5.934-6.136zM63.716 7.86h10.333v2.192h-7.884v3.622h6.985v2.21h-6.985v3.724h7.983v2.188H63.716zM75.398 19.766l1.474-1.75c1.334 1.154 2.688 1.81 4.4 1.81 1.512 0 2.464-.716 2.464-1.752v-.039c0-.996-.557-1.54-3.146-2.131-2.966-.716-4.639-1.592-4.639-4.158v-.039c0-2.39 1.992-4.042 4.759-4.042 2.03 0 3.644.616 5.057 1.752l-1.315 1.848c-1.253-.934-2.507-1.433-3.782-1.433-1.434 0-2.27.737-2.27 1.652v.04c0 1.078.638 1.554 3.325 2.19 2.947.718 4.466 1.773 4.466 4.083v.038c0 2.609-2.05 4.158-4.977 4.158a8.582 8.582 0 0 1-5.816-2.227zM91.082 10.13h-4.44V7.86H97.97v2.27h-4.44v11.666h-2.448zM117.011 7.86h2.429v13.935h-2.429zM105.079 24.505l.873-1.754a6.66 6.66 0 0 0 3.624 1.06c2.082 0 3.218-1.06 3.218-3.102v-.77c-.847 1.078-1.908 1.848-3.585 1.848-2.408 0-4.62-1.773-4.62-4.76v-.039c0-3.008 2.255-4.774 4.62-4.774 1.716 0 2.772.79 3.567 1.734v-1.521h2.331v8.094c0 1.715-.442 2.987-1.29 3.836-.924.924-2.352 1.37-4.183 1.37a8.778 8.778 0 0 1-4.555-1.222zm7.73-7.497v-.04c0-1.657-1.37-2.772-2.988-2.772-1.619 0-2.891 1.1-2.891 2.772v.04c0 1.657 1.29 2.794 2.89 2.794s2.988-1.137 2.988-2.794z" fill="#fff"/>
        <path class="icon" d="M28.458 14.777A14.188 14.188 0 1 0 14.27 28.963h14.188v-4.41H24.55a14.134 14.134 0 0 0 3.907-9.776zm-23.964 0a9.777 9.777 0 1 1 9.776 9.776c-5.4-.001-9.775-4.378-9.776-9.776z" fill="#FF7C00"/>
        <path class="dot" d="M100.645 20.52a1.244 1.244 0 1 1-2.488 0 1.244 1.244 0 0 1 2.488 0z" fill="#FF7C00"/>
    </g>
</svg>
