<?xml version="1.0" standalone="no"?>
<!DOCTYPE svg PUBLIC "-//W3C//DTD SVG 20010904//EN"
 "http://www.w3.org/TR/2001/REC-SVG-20010904/DTD/svg10.dtd">
<svg version="1.0" xmlns="http://www.w3.org/2000/svg"
 width="700.000000pt" height="700.000000pt" viewBox="0 0 700.000000 700.000000"
 preserveAspectRatio="xMidYMid meet">
<metadata>
Created by potrace 1.11, written by Peter Selinger 2001-2013
</metadata>
<g transform="translate(0.000000,700.000000) scale(0.100000,-0.100000)"
fill="#000000" stroke="none">
<path d="M3278 6996 c-1 -2 -41 -6 -88 -10 -87 -7 -105 -9 -225 -27 -116 -18
-123 -19 -192 -35 -154 -34 -203 -47 -313 -81 -260 -79 -581 -227 -815 -374
-695 -437 -1220 -1109 -1475 -1889 -28 -87 -75 -256 -85 -311 -3 -13 -11 -58
-20 -99 -29 -147 -35 -193 -52 -370 -15 -163 -8 -592 12 -711 2 -13 6 -46 9
-74 9 -78 23 -156 51 -285 23 -107 88 -333 114 -395 5 -11 25 -65 46 -120 50
-132 181 -398 250 -508 30 -49 55 -90 55 -93 0 -3 4 -10 10 -17 5 -7 46 -64
91 -126 189 -268 408 -499 679 -716 92 -74 370 -265 386 -265 4 0 15 -6 23
-14 29 -25 304 -161 431 -213 165 -67 424 -150 563 -179 92 -19 211 -41 272
-49 22 -2 56 -7 75 -10 187 -26 697 -27 838 0 16 3 104 15 147 20 321 41 829
220 1153 406 47 27 87 49 89 49 2 0 9 5 16 10 7 6 62 44 124 84 251 167 495
380 675 590 34 39 64 73 68 76 4 3 44 55 90 115 151 199 277 405 383 628 26
53 47 99 47 102 0 2 11 28 24 57 57 127 151 421 182 573 17 81 54 301 59 350
4 33 9 71 11 85 9 46 11 524 4 605 -12 128 -21 202 -25 227 -3 13 -8 43 -11
68 -3 25 -9 61 -14 80 -5 19 -12 51 -15 70 -9 53 -62 261 -75 295 -7 17 -14
40 -16 52 -7 35 -93 260 -141 368 -250 558 -660 1058 -1167 1418 -71 50 -137
96 -147 102 -10 5 -49 29 -86 51 -86 53 -298 163 -383 199 -36 15 -83 35 -105
45 -119 52 -416 142 -580 175 -44 9 -89 19 -100 21 -11 2 -38 6 -60 9 -22 3
-51 7 -65 10 -13 2 -52 7 -86 11 -33 3 -74 8 -90 10 -33 5 -540 14 -546 10z
m522 -819 c14 -3 50 -8 80 -12 414 -48 891 -250 1263 -532 132 -101 392 -360
491 -491 254 -336 438 -743 511 -1132 7 -39 18 -107 20 -130 2 -14 7 -56 12
-95 4 -38 8 -167 8 -285 0 -281 -9 -361 -70 -642 -19 -88 -90 -302 -133 -403
-285 -667 -820 -1190 -1492 -1458 -101 -41 -309 -106 -388 -122 -97 -20 -238
-44 -302 -51 -149 -17 -585 -9 -693 12 -19 3 -102 18 -162 29 -38 6 -120 27
-205 52 -308 90 -597 237 -868 440 -215 161 -526 496 -638 689 -16 27 -39 65
-52 84 -31 46 -151 289 -181 365 -90 234 -156 498 -179 718 -9 96 -9 484 1
572 40 346 115 602 267 910 101 205 269 457 390 586 228 242 372 364 600 506
102 64 280 157 370 193 30 12 69 28 85 35 68 29 296 96 390 116 33 7 67 14 75
16 24 5 221 32 265 36 54 5 504 0 535 -6z"/>
<path d="M3360 5109 c-826 -67 -1474 -773 -1473 -1604 0 -105 8 -207 23 -285
6 -30 13 -66 15 -80 15 -86 74 -250 131 -362 103 -207 249 -387 430 -532 38
-31 75 -61 82 -67 27 -23 190 -115 253 -143 35 -16 75 -34 89 -41 14 -7 41
-16 60 -20 19 -4 40 -11 45 -15 12 -8 128 -38 182 -45 21 -3 44 -8 51 -10 23
-8 165 -18 252 -19 259 0 508 60 740 180 483 250 809 727 867 1269 10 91 6
312 -6 380 -6 33 -13 74 -16 90 -9 54 -13 69 -38 155 -137 469 -493 859 -947
1040 -76 31 -242 78 -298 86 -26 3 -49 8 -53 9 -23 15 -272 23 -389 14z m305
-818 c79 -15 196 -64 273 -114 170 -110 292 -281 348 -487 25 -94 23 -289 -4
-391 -73 -271 -271 -481 -537 -568 -78 -25 -122 -32 -222 -36 -373 -13 -706
237 -805 605 -30 110 -30 297 0 404 88 310 332 535 640 590 82 15 226 13 307
-3z"/>
</g>
</svg>
