<svg width="157" height="18" xmlns="http://www.w3.org/2000/svg">
    <g fill="#9F9F9F" fill-rule="evenodd">
        <path d="M6.342 6.43l-.57.554s-.637-.827-1.893-.827C2.388 6.157 1.367 7.498 1.367 9s1.02 2.843 2.512 2.843c1.246 0 1.982-.938 1.982-.938l.56.585s-.933 1.159-2.542 1.159C1.897 12.649.484 11.036.484 9s1.413-3.649 3.395-3.649c1.61 0 2.463 1.079 2.463 1.079zM9.34 8.839c.923 0 1.423-.504 1.423-1.28 0-.777-.5-1.28-1.423-1.28H8.33v2.56h1.01zm-1.835 3.689V5.472h1.786c1.364 0 2.296.827 2.296 2.087 0 1.673-1.481 1.985-1.677 2.016l1.903 2.953h-.99L8.967 9.645H8.33v2.883h-.825zm6.335-6.25v2.228h2.905v.806H13.84v2.41h3.199v.806h-4.023V5.472h3.964v.806h-3.14zm3.872 6.25l2.698-7.056h.766l2.678 7.056h-.863l-.716-1.905H19.31l-.716 1.905h-.883zm3.081-5.846l-1.178 3.134h2.355l-1.177-3.134zm4.99 5.846v-6.25h-1.972v-.806h4.769v.806h-1.972v6.25h-.825zm4.647-6.25v2.228h2.905v.806H30.43v2.41h3.2v.806h-4.024V5.472h3.964v.806h-3.14zM37 5.472c2.13 0 3.396 1.492 3.396 3.528S39.13 12.528 37 12.528h-1.972V5.472H37zm-.049 6.25c1.678 0 2.561-1.22 2.561-2.722s-.883-2.722-2.56-2.722h-1.1v5.444h1.1zm7.675.806V5.472h1.806c1.413 0 2.207.746 2.207 1.925 0 .958-.677 1.361-.775 1.381.098.02 1.148.333 1.148 1.734 0 1.23-.883 2.016-2.237 2.016h-2.149zm2.15-.806c.98 0 1.412-.545 1.412-1.21 0-.665-.432-1.21-1.413-1.21H45.45v2.42h1.325zM45.45 8.516h1.119c.775 0 1.246-.433 1.246-1.119 0-.685-.47-1.119-1.246-1.119H45.45v2.238zm6.414 4.012V9.756l-2.316-4.284h.922l1.845 3.468 1.815-3.468h.874l-2.316 4.284v2.772h-.824zM67.451.037c-.434 0-.86.034-1.276.099v2.88h.002v5.983h2.536V3.013c2.634.604 4.607 3.057 4.607 5.993 0 3.39-2.628 6.137-5.869 6.137-3.24 0-5.868-2.748-5.868-6.137 0-1.692.656-3.223 1.716-4.333L61.38 2.67c-1.548 1.623-2.506 3.862-2.506 6.336 0 4.953 3.84 8.97 8.576 8.97 4.737 0 8.577-4.017 8.577-8.97 0-4.954-3.84-8.97-8.577-8.97M88.743 9.006c0-.224-.016-.445-.046-.66h-1.362l-2.827.001v1.311h2.83c-.286 1.362-1.446 2.381-2.833 2.381-1.602 0-2.9-1.358-2.9-3.033 0-1.675 1.298-3.033 2.9-3.033.8 0 1.523.339 2.047.886l.947-.99a4.134 4.134 0 0 0-2.994-1.296c-2.341 0-4.239 1.985-4.239 4.433 0 2.448 1.898 4.433 4.239 4.433 2.34 0 4.238-1.985 4.238-4.433M93.655 8.969c1.033 0 1.69-.565 1.69-1.437v-.024c0-.921-.633-1.424-1.702-1.424h-2.101v2.885h2.113zm-3.557-4.26h3.663c1.033 0 1.843.318 2.371.859.435.466.681 1.105.681 1.854v.025c0 1.412-.81 2.259-1.949 2.603l2.22 3.254h-1.715l-2.02-2.997h-1.807v2.997h-1.444V4.708zM98.409 4.708h6.093v1.35h-4.649v2.236h4.121v1.363h-4.121v2.296h4.708v1.35H98.41zM106.098 4.708h6.094v1.35h-4.65v2.236h4.121v1.363h-4.12v2.296h4.707v1.35h-6.152zM113.787 4.708h1.339l4.403 5.943V4.708h1.42v8.596h-1.21l-4.531-6.115v6.115h-1.42zM122.523 4.708h1.444v7.22h4.32v1.376h-5.764zM129.684 13.303h1.444V4.708h-1.444zM142.174 4.708h1.445v3.574h3.921V4.708h1.444v8.596h-1.444V9.68h-3.921v3.623h-1.445zM152.928 6.108h-2.618v-1.4h6.68v1.4h-2.618v7.196h-1.444zM140.818 8.996a4.67 4.67 0 0 0-.047-.66h-4.189v1.312h2.83c-.286 1.361-1.445 2.38-2.833 2.38-1.602 0-2.9-1.357-2.9-3.032 0-1.676 1.298-3.034 2.9-3.034.8 0 1.523.34 2.048.887l.946-.991a4.134 4.134 0 0 0-2.994-1.295c-2.341 0-4.239 1.984-4.239 4.433 0 2.448 1.898 4.432 4.239 4.432 2.34 0 4.239-1.984 4.239-4.432"/>
    </g>
</svg>
