<svg width="75" height="16" xmlns="http://www.w3.org/2000/svg">
    <g fill="#9F9F9F" fill-rule="evenodd">
        <text font-family="ProximaNova-Regular, Proxima Nova" font-size="14" transform="translate(0 -1)">
            <tspan x="25" y="14">LOOP.gl</tspan>
        </text>
        <path d="M11.986 9.463a3.971 3.971 0 0 1-1.991.532c-.64 0-1.245-.151-1.781-.419a4.007 4.007 0 0 1-1.79-1.79 2.24 2.24 0 0 0-1.957.57 6.026 6.026 0 0 0 3.178 3.177 5.968 5.968 0 0 0 1.818.453 3.99 3.99 0 1 1 .113-3.772 2.24 2.24 0 0 0 1.957-.57 6.026 6.026 0 0 0-3.178-3.177 5.97 5.97 0 0 0-1.818-.453 3.99 3.99 0 1 1 5.45 5.45M9.994 0A6.007 6.007 0 0 0 4.25 4.25a6.005 6.005 0 1 0 7.499 7.499A6.005 6.005 0 0 0 9.994 0"/>
    </g>
</svg>
