<svg xmlns="http://www.w3.org/2000/svg" width="68" height="18" viewBox="0 0 68.21 18" class="footer-logo-svg" fill="#9f9f9f"><title>logo_Loop</title><g id="Layer_2" data-name="Layer 2"><g id="Layer_1-2" data-name="Layer 1"><path class="cls-1" d="M11.24,0A6.76,6.76,0,0,0,4.78,4.78a6.76,6.76,0,1,0,8.44,8.44A6.76,6.76,0,0,0,11.24,0Zm2.24,10.65A4.49,4.49,0,0,1,7.23,8.76a2.5,2.5,0,0,0-.47,0A2.54,2.54,0,0,0,5,9.4,6.77,6.77,0,0,0,8.6,13a6.43,6.43,0,0,0,2.05.51A4.49,4.49,0,1,1,4.52,7.35a4.49,4.49,0,0,1,6.25,1.89,2.5,2.5,0,0,0,.47,0A2.54,2.54,0,0,0,13,8.6,6.77,6.77,0,0,0,9.4,5a6.43,6.43,0,0,0-2.05-.51,4.49,4.49,0,1,1,6.13,6.13Z"/><path class="cls-1" d="M56.29,12.63a.79.79,0,1,1-.79-.79A.79.79,0,0,1,56.29,12.63Z"/><path class="cls-1" d="M21.2,4.6h1.56V12H27.4v1.42H21.2Z"/><path class="cls-1" d="M27.67,9V9a4.62,4.62,0,0,1,9.24,0V9a4.62,4.62,0,0,1-9.24,0Zm7.61,0V9a3,3,0,0,0-3-3.13,3,3,0,0,0-3,3.1V9a3,3,0,0,0,3,3.13A3,3,0,0,0,35.28,9Z"/><path class="cls-1" d="M37.88,9V9a4.62,4.62,0,0,1,9.24,0V9a4.62,4.62,0,0,1-9.24,0Zm7.61,0V9a3,3,0,0,0-3-3.13,3,3,0,0,0-3,3.1V9a3,3,0,0,0,3,3.13A3,3,0,0,0,45.49,9Z"/><path class="cls-1" d="M48.37,4.6h3.48c2.07,0,3.36,1.17,3.36,3v0c0,2-1.59,3-3.54,3H49.92v2.84H48.37Zm3.35,4.59c1.18,0,1.91-.65,1.91-1.57v0c0-1-.74-1.58-1.91-1.58h-1.8V9.19Z"/><rect class="cls-1" x="66.67" y="4.6" width="1.54" height="8.84"/><path class="cls-1" d="M59.1,15.16,59.65,14a4.22,4.22,0,0,0,2.3.68,1.8,1.8,0,0,0,2-2v-.49a2.72,2.72,0,0,1-2.27,1.17,2.89,2.89,0,0,1-2.94-3v0a2.91,2.91,0,0,1,2.94-3A2.77,2.77,0,0,1,64,8.46v-1h1.48v5.14a3.3,3.3,0,0,1-.82,2.43,3.62,3.62,0,0,1-2.65.87A5.57,5.57,0,0,1,59.1,15.16ZM64,10.4v0a1.79,1.79,0,0,0-1.9-1.76,1.73,1.73,0,0,0-1.83,1.76v0a1.76,1.76,0,0,0,1.83,1.77A1.8,1.8,0,0,0,64,10.4Z"/></g></g></svg>
