<svg xmlns="http://www.w3.org/2000/svg" width="75" height="18" viewBox="0 0 75.72 18" class="footer-logo-svg" fill="#9f9f9f"><title>logo_Quest</title><g id="Layer_2" data-name="Layer 2"><g id="Layer_1-2" data-name="Layer 1"><path class="cls-1" d="M29.61,13.72l-1.06-1a4.62,4.62,0,0,1-2.69.84,4.49,4.49,0,0,1-4.61-4.55V9a4.53,4.53,0,0,1,4.63-4.57A4.49,4.49,0,0,1,30.49,9V9a4.55,4.55,0,0,1-.9,2.72l1,.86Zm-2.2-2-1.53-1.31,1-1.14,1.55,1.42a3.3,3.3,0,0,0,.43-1.68V9a3,3,0,0,0-3-3.13,3,3,0,0,0-3,3.11V9a3,3,0,0,0,3,3.14A3,3,0,0,0,27.41,11.77Z"/><path class="cls-1" d="M31.6,9.7V4.61h1.55v5c0,1.64.85,2.51,2.24,2.51s2.22-.82,2.22-2.45V4.61h1.56v5c0,2.64-1.49,4-3.81,4S31.6,12.27,31.6,9.7Z"/><path class="cls-1" d="M40.37,4.61h6.55V6h-5V8.3h4.43V9.7H41.92v2.36H47v1.39H40.37Z"/><path class="cls-1" d="M47.78,12.17l.93-1.12A4.08,4.08,0,0,0,51.5,12.2c1,0,1.57-.45,1.57-1.11v0c0-.63-.35-1-2-1.35-1.88-.46-2.94-1-2.94-2.64v0c0-1.51,1.26-2.56,3-2.56A4.91,4.91,0,0,1,54.36,5.6l-.84,1.17a4,4,0,0,0-2.4-.91c-.9,0-1.44.47-1.44,1v0c0,.68.41,1,2.11,1.39,1.87.45,2.83,1.12,2.83,2.59v0c0,1.66-1.3,2.64-3.15,2.64A5.46,5.46,0,0,1,47.78,12.17Z"/><path class="cls-1" d="M57.73,6.05H54.91V4.61H62.1V6.05H59.28v7.4H57.73Z"/><rect class="cls-1" x="74.17" y="4.61" width="1.54" height="8.84"/><path class="cls-1" d="M66.61,15.17l.55-1.11a4.16,4.16,0,0,0,2.29.67,1.8,1.8,0,0,0,2-2v-.49a2.72,2.72,0,0,1-2.28,1.18,2.89,2.89,0,0,1-2.93-3v0a2.91,2.91,0,0,1,2.93-3,2.77,2.77,0,0,1,2.26,1.1v-1H73v5.13a3.27,3.27,0,0,1-.82,2.43,3.6,3.6,0,0,1-2.65.87A5.56,5.56,0,0,1,66.61,15.17Zm4.9-4.75v0a1.8,1.8,0,0,0-1.9-1.76,1.74,1.74,0,0,0-1.83,1.76v0a1.76,1.76,0,0,0,1.83,1.77A1.8,1.8,0,0,0,71.51,10.42Z"/><path class="cls-1" d="M18,9a9,9,0,1,0-9,9h9V15.2H15.52A9,9,0,0,0,18,9ZM2.8,9A6.2,6.2,0,1,1,9,15.2,6.19,6.19,0,0,1,2.8,9Z"/><path class="cls-1" d="M63.79,12.64a.79.79,0,1,1-.79-.78A.79.79,0,0,1,63.79,12.64Z"/></g></g></svg>
