<svg width="71" height="16" xmlns="http://www.w3.org/2000/svg">
    <g fill="#9F9F9F" fill-rule="evenodd">
        <text font-family="ProximaNova-Regular, Proxima Nova" font-size="14" transform="translate(0 -1)">
            <tspan x="28" y="14">VIBE.gl</tspan>
        </text>
        <path d="M16.26 9.21h1.292L19 6.7h-2.74c-.54.011-1.07.145-1.55.392-.675.346-1.419 1.381-1.515 1.554l-.13.217-.086.152c-.037.065-.074.13-.112.193-.357.614-.713 1.23-1.062 1.85l-.044.076-.12.214-.643 1.144-.173.305c-.385.517-1.033.822-1.636.389-.603-.433-.539-1.168-.252-1.714l.02-.035c.551-1.001 1.114-1.997 1.675-2.992l.422-.75.194-.345h-.004l.891-1.583c.898-1.593.844-3.665-.613-4.937-1.068-.933-2.61-1.081-3.86-.431C6.795.84 6.402 1.504 5.93 2.31c-.11.187-.218.374-.326.561-.11.193-.223.386-.334.577-.073.12-.145.245-.22.371a316.766 316.766 0 0 0-1.337 2.334c-.24.291-.565.502-.914.524H1.6L.154 9.186h2.645a3.548 3.548 0 0 0 1.55-.392c.674-.345 1.062-.826 1.422-1.4.075-.118.148-.24.222-.366l.086-.152.112-.194.259-.446c.27-.466.538-.934.803-1.403l.043-.076.121-.214.65-1.144.07-.126.027-.043c.368-.588 1.07-.984 1.722-.517.603.431.538 1.167.251 1.713l-.019.036c-.552 1-1.114 1.996-1.676 2.992l-.086.146-.054.095-1.37 2.434c-.898 1.594-.844 3.665.612 4.937 1.07.933 2.61 1.082 3.86.436.732-.378 1.127-.907 1.514-1.548.073-.12.146-.244.22-.37.396-.679.788-1.36 1.175-2.043l.021-.039c.287-.492.57-.985.848-1.48l.03-.053.144-.25c.238-.283.559-.488.902-.51l.002.002z" fill-rule="nonzero"/>
    </g>
</svg>
