<svg xmlns="http://www.w3.org/2000/svg" width="73" height="18" viewBox="0 0 73 18" class="footer-logo-svg" fill="#9f9f9f"><title>logo_Voice</title><g id="Layer_2" data-name="Layer 2"><g id="Layer_1-2" data-name="Layer 1"><path class="cls-1" d="M19.46,4.58h1.71l2.66,6.78,2.65-6.78h1.67L24.5,13.46H23.11Z"/><path class="cls-1" d="M28.08,9V9A4.61,4.61,0,0,1,37.3,9V9a4.61,4.61,0,0,1-9.22,0Zm7.6,0V9a3,3,0,0,0-3-3.13,3,3,0,0,0-3,3.1V9a3,3,0,0,0,3,3.12A3,3,0,0,0,35.68,9Z"/><path class="cls-1" d="M38.58,4.58h1.55V13.4H38.58Z"/><path class="cls-1" d="M41.4,9V9a4.46,4.46,0,0,1,4.54-4.56A4.57,4.57,0,0,1,49.4,5.8L48.41,7a3.52,3.52,0,0,0-2.49-1.09A3,3,0,0,0,43,9V9a3,3,0,0,0,2.91,3.12A3.43,3.43,0,0,0,48.47,11l1,1a4.55,4.55,0,0,1-3.58,1.56A4.43,4.43,0,0,1,41.4,9Z"/><path class="cls-1" d="M50.92,4.58h6.54V6h-5v2.3h4.42v1.4H52.47V12h5.05V13.4h-6.6Z"/><rect class="cls-1" x="71.46" y="4.59" width="1.54" height="8.81"/><path class="cls-1" d="M63.91,15.12,64.46,14a4.22,4.22,0,0,0,2.3.67,1.79,1.79,0,0,0,2-2v-.49a2.73,2.73,0,0,1-2.27,1.17,2.88,2.88,0,0,1-2.92-3v0a2.9,2.9,0,0,1,2.92-3,2.77,2.77,0,0,1,2.26,1.1v-1h1.47V12.6A3.3,3.3,0,0,1,69.44,15a3.62,3.62,0,0,1-2.65.87A5.56,5.56,0,0,1,63.91,15.12Zm4.89-4.74v0A1.79,1.79,0,0,0,66.91,8.6a1.72,1.72,0,0,0-1.82,1.75v0a1.75,1.75,0,0,0,1.82,1.77A1.8,1.8,0,0,0,68.8,10.38Z"/><polygon class="cls-1" points="16.18 0 9.45 12.81 2.73 0 0 0 8.09 15.41 9.45 18 10.82 15.41 18.91 0 16.18 0"/><polygon class="cls-1" points="11.4 0 9.45 3.71 7.51 0 4.78 0 8.09 6.3 9.45 8.89 10.82 6.3 14.13 0 11.4 0"/><path class="cls-1" d="M61.5,12.6a.79.79,0,1,1-.79-.79A.79.79,0,0,1,61.5,12.6Z"/></g></g></svg>
