<svg width="161" height="18" xmlns="http://www.w3.org/2000/svg">
    <g fill="none" fill-rule="evenodd">
        <path d="M6.504 6.43l-.584.554s-.654-.827-1.942-.827c-1.53 0-2.576 1.341-2.576 2.843s1.046 2.843 2.576 2.843c1.278 0 2.032-.938 2.032-.938l.574.585s-.956 1.159-2.606 1.159C1.945 12.649.496 11.036.496 9s1.45-3.649 3.482-3.649c1.65 0 2.526 1.079 2.526 1.079zm3.074 2.409c.946 0 1.46-.504 1.46-1.28 0-.777-.514-1.28-1.46-1.28H8.542v2.56h1.036zm-1.881 3.689V5.472h1.831c1.399 0 2.355.827 2.355 2.087 0 1.673-1.52 1.985-1.721 2.016l1.952 2.953h-1.016L9.196 9.645h-.654v2.883h-.845zm6.496-6.25v2.228h2.978v.806h-2.978v2.41h3.28v.806h-4.126V5.472h4.066v.806h-3.22zm3.97 6.25l2.767-7.056h.785l2.747 7.056h-.885l-.735-1.905h-3.039l-.734 1.905h-.906zm3.16-5.846l-1.208 3.134h2.415l-1.207-3.134zm5.117 5.846v-6.25h-2.022v-.806h4.89v.806h-2.023v6.25h-.845zm4.766-6.25v2.228h2.978v.806h-2.978v2.41h3.28v.806H30.36V5.472h4.066v.806h-3.22zm6.737-.806c2.184 0 3.482 1.492 3.482 3.528s-1.298 3.528-3.482 3.528h-2.022V5.472h2.022zm-.05 6.25c1.72 0 2.626-1.22 2.626-2.722s-.906-2.722-2.626-2.722h-1.127v5.444h1.127zm7.87.806V5.472h1.852c1.449 0 2.264.746 2.264 1.925 0 .958-.695 1.361-.795 1.381.1.02 1.177.333 1.177 1.734 0 1.23-.906 2.016-2.294 2.016h-2.204zm2.204-.806c1.006 0 1.449-.545 1.449-1.21 0-.665-.443-1.21-1.45-1.21h-1.358v2.42h1.359zm-1.359-3.206h1.147c.795 0 1.278-.433 1.278-1.119 0-.685-.483-1.119-1.278-1.119h-1.147v2.238zm6.577 4.012V9.756L50.81 5.472h.946l1.892 3.468 1.861-3.468h.896L54.03 9.756v2.772h-.845z" fill="#1A1A00"/>
        <path d="M69.17.037c-.445 0-.882.034-1.31.099v2.88h.003v5.983h2.6V3.013c2.702.604 4.725 3.057 4.725 5.993 0 3.39-2.695 6.137-6.018 6.137-3.324 0-6.018-2.748-6.018-6.137 0-1.692.673-3.223 1.76-4.333L62.944 2.67a9.031 9.031 0 0 0-2.57 6.336c0 4.953 3.938 8.97 8.795 8.97 4.857 0 8.795-4.017 8.795-8.97 0-4.954-3.938-8.97-8.795-8.97" fill="#3C3"/>
        <path d="M91.004 9.006c0-.224-.016-.445-.048-.66h-1.395l-2.9.001v1.311h2.901c-.292 1.362-1.481 2.381-2.904 2.381-1.643 0-2.974-1.358-2.974-3.033 0-1.675 1.331-3.033 2.974-3.033.82 0 1.562.339 2.1.886l.97-.99a4.291 4.291 0 0 0-3.07-1.296c-2.4 0-4.347 1.985-4.347 4.433 0 2.448 1.946 4.433 4.347 4.433 2.4 0 4.346-1.985 4.346-4.433M96.041 8.969c1.06 0 1.734-.565 1.734-1.437v-.024c0-.921-.65-1.424-1.746-1.424h-2.155v2.885h2.167zm-3.648-4.26h3.757c1.06 0 1.89.318 2.432.859.445.466.698 1.105.698 1.854v.025c0 1.412-.83 2.259-1.999 2.603l2.276 3.254h-1.758l-2.07-2.997h-1.855v2.997h-1.48V4.708zM100.916 4.708h6.249v1.35h-4.768v2.236h4.226v1.363h-4.226v2.296h4.828v1.35h-6.309zM108.801 4.708h6.249v1.35h-4.768v2.236h4.226v1.363h-4.226v2.296h4.828v1.35h-6.309zM116.686 4.708h1.373l4.515 5.943V4.708h1.457v8.596h-1.24l-4.648-6.115v6.115h-1.457zM125.645 4.708h1.48v7.22h4.431v1.376h-5.911zM132.988 13.303h1.48V4.708h-1.48zM145.797 4.708h1.48v3.574h4.022V4.708h1.481v8.596h-1.481V9.68h-4.021v3.623h-1.481zM156.824 6.108h-2.685v-1.4h6.85v1.4h-2.684v7.196h-1.481zM144.405 8.996c0-.225-.016-.445-.048-.66h-4.295v1.312h2.901c-.293 1.361-1.481 2.38-2.904 2.38-1.643 0-2.974-1.357-2.974-3.032 0-1.676 1.331-3.034 2.974-3.034.82 0 1.562.34 2.1.887l.97-.991a4.291 4.291 0 0 0-3.07-1.295c-2.4 0-4.347 1.984-4.347 4.433 0 2.448 1.946 4.432 4.347 4.432 2.4 0 4.346-1.984 4.346-4.432" fill="#1A1A00"/>
    </g>
</svg>
