<?xml version="1.0" encoding="UTF-8"?>
<svg width="20px" height="20px" viewBox="0 0 20 20" version="1.1" xmlns="http://www.w3.org/2000/svg" xmlns:xlink="http://www.w3.org/1999/xlink">
    <!-- Generator: Sketch 57.1 (83088) - https://sketch.com -->
    <title>facebook-brands</title>
    <desc>Created with Sketch.</desc>
    <g id="Symbols" stroke="none" stroke-width="1" fill="none" fill-rule="evenodd">
        <g id="Footer-Mobile" transform="translate(-30.000000, -80.000000)" fill="#000099" fill-rule="nonzero">
            <g id="Group" transform="translate(16.000000, 24.000000)">
                <g id="Fb" transform="translate(0.000000, 42.000000)">
                    <g id="facebook-brands" transform="translate(14.000000, 14.000000)">
                        <path d="M20,10 C20,4.47580645 15.5241935,0 10,0 C4.47580645,0 0,4.47580645 0,10 C0,14.991129 3.65685484,19.1282258 8.4375,19.8790323 L8.4375,12.8907258 L5.89717742,12.8907258 L5.89717742,10 L8.4375,10 L8.4375,7.79677419 C8.4375,5.29072581 9.92943548,3.90645161 12.2145161,3.90645161 C13.308871,3.90645161 14.4532258,4.1016129 14.4532258,4.1016129 L14.4532258,6.56129032 L13.1919355,6.56129032 C11.95,6.56129032 11.5625,7.33225806 11.5625,8.12298387 L11.5625,10 L14.3358871,10 L13.8923387,12.8907258 L11.5625,12.8907258 L11.5625,19.8790323 C16.3431452,19.1282258 20,14.991129 20,10 Z" id="Path"></path>
                    </g>
                </g>
            </g>
        </g>
    </g>
</svg>