<?xml version="1.0" encoding="UTF-8"?>
<svg width="20px" height="20px" viewBox="0 0 20 20" version="1.1" xmlns="http://www.w3.org/2000/svg" xmlns:xlink="http://www.w3.org/1999/xlink">
    <!-- Generator: Sketch 57.1 (83088) - https://sketch.com -->
    <title>link-solid</title>
    <desc>Created with Sketch.</desc>
    <g id="Design" stroke="none" stroke-width="1" fill="none" fill-rule="evenodd">
        <g id="Resources-Detail" transform="translate(-134.000000, -1401.000000)" fill="#000099" fill-rule="nonzero">
            <g id="Article" transform="translate(116.000000, 1191.000000)">
                <g id="Share">
                    <g id="Button" transform="translate(0.000000, 192.000000)">
                        <g id="link-solid" transform="translate(18.000000, 18.000000)">
                            <path d="M12.7583008,7.24184133 C15.092168,9.57812582 15.0601367,13.3237826 12.7723633,15.6242468 C12.7680664,15.6289343 12.7629883,15.6340124 12.7583008,15.6386999 L10.1333008,18.2636948 C7.81806641,20.5789246 4.05130859,20.5786121 1.73642578,18.2636948 C-0.578808594,15.9488556 -0.578808594,12.1816754 1.73642578,9.8668362 L3.18587891,8.4173859 C3.57025391,8.03301165 4.23220703,8.28847991 4.25205078,8.83168197 C4.27736328,9.52394624 4.40150391,10.2194527 4.63056641,10.891092 C4.70814453,11.1185134 4.65271484,11.3700754 4.48279297,11.539997 L3.97158203,12.0512069 C2.87681641,13.1459704 2.84248047,14.9285451 3.92646484,16.0340117 C5.02115234,17.1503767 6.82044922,17.1570173 7.92353516,16.0539335 L10.5485352,13.4293292 C11.6497461,12.3281205 11.6451367,10.5482021 10.5485352,9.45160263 C10.4039648,9.30730604 10.2583398,9.19519688 10.1445898,9.11687673 C9.98141793,9.00482682 9.88080228,8.82225041 9.87322266,8.62445581 C9.85775391,8.21168318 10.0040039,7.78633245 10.3301758,7.46016121 L11.1525977,6.63770188 C11.3682617,6.42203824 11.706582,6.39555392 11.9566602,6.57008482 C12.2430541,6.77006472 12.5113015,6.9948499 12.7583008,7.24184133 Z M18.2635742,1.7363052 C15.9486914,-0.578612149 12.1819336,-0.578924648 9.86669922,1.7363052 L7.24169922,4.36130008 C7.23701172,4.36598757 7.23193359,4.37106568 7.22763672,4.37575317 C4.93990234,6.67621743 4.90783203,10.4218742 7.24169922,12.7581587 C7.48868388,13.0051389 7.75691848,13.2299113 8.04330078,13.4298761 C8.29337891,13.604407 8.63173828,13.5778836 8.84736328,13.3622591 L9.66978516,12.5397997 C9.99595703,12.2136285 10.142207,11.7882778 10.1267383,11.3755051 C10.1191587,11.1777105 10.018543,10.9951341 9.85537109,10.8830842 C9.74162109,10.8047641 9.59599609,10.6926549 9.45142578,10.5483583 C8.35482422,9.45175888 8.35021484,7.67184049 9.45142578,6.5706317 L12.0764258,3.94602745 C13.1795117,2.84294367 14.9787695,2.84958428 16.0734961,3.96594929 C17.1574805,5.07141588 17.1231836,6.85399052 16.0283789,7.94875401 L15.517168,8.45996395 C15.3472461,8.62988549 15.2918164,8.8814475 15.3693945,9.10886893 C15.598457,9.78050824 15.7225977,10.4760147 15.7479102,11.168279 C15.767793,11.711481 16.429707,11.9669493 16.814082,11.582575 L18.2635352,10.1331247 C20.5788086,7.81832457 20.5788086,4.05114443 18.2635742,1.7363052 L18.2635742,1.7363052 Z" id="Shape"></path>
                        </g>
                    </g>
                </g>
            </g>
        </g>
    </g>
</svg>