<?xml version="1.0" encoding="UTF-8"?>
<svg width="18px" height="18px" viewBox="0 0 18 18" version="1.1" xmlns="http://www.w3.org/2000/svg" xmlns:xlink="http://www.w3.org/1999/xlink">
    <!-- Generator: Sketch 57.1 (83088) - https://sketch.com -->
    <title>linkedin-in-brands</title>
    <desc>Created with Sketch.</desc>
    <g id="Symbols" stroke="none" stroke-width="1" fill="none" fill-rule="evenodd">
        <g id="Footer-Mobile" transform="translate(-143.000000, -79.000000)" fill="#000099" fill-rule="nonzero">
            <g id="Group" transform="translate(16.000000, 24.000000)">
                <g id="Li" transform="translate(112.000000, 42.000000)">
                    <g id="linkedin-in-brands" transform="translate(15.000000, 13.000000)">
                        <path d="M4.02910714,18 L0.297321429,18 L0.297321429,5.98258929 L4.02910714,5.98258929 L4.02910714,18 Z M2.16120536,4.34330357 C0.967901786,4.34330357 0,3.35491071 0,2.16160714 C0,0.968006395 0.96760461,0.000401817919 2.16120536,0.000401817919 C3.3548061,0.000401817919 4.32241071,0.968006395 4.32241071,2.16160714 C4.32241071,3.35491071 3.35410714,4.34330357 2.16120536,4.34330357 Z M17.9959821,18 L14.2722321,18 L14.2722321,12.15 C14.2722321,10.7558036 14.2441071,8.96785714 12.3320089,8.96785714 C10.3917857,8.96785714 10.0944643,10.4825893 10.0944643,12.0495536 L10.0944643,18 L6.36669643,18 L6.36669643,5.98258929 L9.94580357,5.98258929 L9.94580357,7.621875 L9.99803571,7.621875 C10.49625,6.67767857 11.7132589,5.68125 13.5289286,5.68125 C17.3057143,5.68125 18,8.16830357 18,11.3986607 L18,18 L17.9959821,18 Z" id="Shape"></path>
                    </g>
                </g>
            </g>
        </g>
    </g>
</svg>