<svg width="26px" height="26px" viewBox="0 0 26 26" version="1.1" xmlns="http://www.w3.org/2000/svg" xmlns:xlink="http://www.w3.org/1999/xlink">
    <g id="Design" stroke="none" stroke-width="1" fill="none" fill-rule="evenodd">
        <g id="Homepage-06" transform="translate(-60.000000, -47.000000)" fill="#000099" fill-rule="nonzero">
            <g id="Navigation" transform="translate(60.000000, 32.000000)">
                <g id="Logo" transform="translate(0.000000, 15.000000)">
                    <g id="Symbol">
                        <path d="M13,19 C16.3137085,19 19,16.3137085 19,13 C19,9.6862915 16.3137085,7 13,7 C9.6862915,7 7,9.6862915 7,13 C7,16.3137085 9.6862915,19 13,19 Z M13,16 C11.3431458,16 10,14.6568542 10,13 C10,11.3431458 11.3431458,10 13,10 C14.6568542,10 16,11.3431458 16,13 C16,14.6568542 14.6568542,16 13,16 Z" id="Oval"></path>
                        <path d="M13,26 C20.1797017,26 26,20.1797017 26,13 C26,5.82029825 20.1797017,0 13,0 C5.82029825,0 0,5.82029825 0,13 C0,20.1797017 5.82029825,26 13,26 Z M13,23 C7.4771525,23 3,18.5228475 3,13 C3,7.4771525 7.4771525,3 13,3 C18.5228475,3 23,7.4771525 23,13 C23,18.5228475 18.5228475,23 13,23 Z" id="Oval-Copy"></path>
                    </g>
                </g>
            </g>
        </g>
    </g>
</svg>