<?xml version="1.0" encoding="UTF-8"?>
<svg width="24px" height="20px" viewBox="0 0 24 20" version="1.1" xmlns="http://www.w3.org/2000/svg" xmlns:xlink="http://www.w3.org/1999/xlink">
    <!-- Generator: Sketch 57.1 (83088) - https://sketch.com -->
    <title>Quote</title>
    <desc>Created with Sketch.</desc>
    <g id="Design" stroke="none" stroke-width="1" fill="none" fill-rule="evenodd">
        <g id="About-375" transform="translate(-16.000000, -1757.000000)" fill="#FF854A">
            <g id="Quote" transform="translate(16.000000, 1444.000000)">
                <path d="M22.2624,313 L24,314.7875 C20.3316,317.55 18.4008,319.7375 17.34,322.3125 C21.6828,322.3125 24,324.6875 24,327.65 C24,330.625 21.6828,333 18.7872,333 C15.6984,333 13.5744,330.825 13.5744,326.6625 C13.5744,320.525 18.3048,316.3625 22.2624,313 L22.2624,313 Z M8.688,313 L10.4256,314.7875 C6.7572,317.55 4.8264,319.7375 3.7644,322.3125 C8.1084,322.3125 10.4256,324.6875 10.4256,327.65 C10.4256,330.625 8.1084,333 5.2128,333 C2.124,333 0,330.825 0,326.6625 C0,320.525 4.7304,316.3625 8.688,313 L8.688,313 Z"></path>
            </g>
        </g>
    </g>
</svg>