
<svg width="648px" height="292px" viewBox="0 0 648 292" version="1.1" xmlns="http://www.w3.org/2000/svg" xmlns:xlink="http://www.w3.org/1999/xlink">
    <g id="Design" stroke="none" stroke-width="1" fill="none" fill-rule="evenodd">
        <g id="Explore" transform="translate(-732.000000, -3164.000000)">
            <g id="Stores" transform="translate(172.000000, 3164.000000)">
                <g id="Illustration" transform="translate(560.000000, 0.000000)">
                    <rect id="Rectangle" fill-opacity="0.01" fill="#D8D8D8" x="0" y="0" width="648" height="292"></rect>
                    <g id="Group-27" transform="translate(15.725806, 14.516129)" fill="#BDC7CF" fill-opacity="0.3">
                        <path d="M326.262207,118.991091 C330.037313,115.188318 333.698063,111.500362 337.530347,107.63949 C332.912793,102.266638 327.612336,97.9243672 322.672006,92.4173328 C318.982666,91.288536 314.835445,91.4190301 311.481332,92.2600944 C309.222355,94.4558993 307.617232,96.0660947 305.944325,97.6015903 C305.582354,97.9335894 304.981528,98.1424721 304.479841,98.1641443 C298.981567,98.4002325 293.62716,97.965406 289.036812,94.4448326 C288.598297,94.1091447 288.302725,93.5880906 287.844843,93.0379866 C285.285223,91.5227798 283.561594,88.793932 281.030563,86.7622822 L272.096099,86.7622822 C267.860345,90.9989591 263.43784,95.4219243 258.859942,100.000284 C258.36056,100.028872 257.692873,100.067144 257.005359,100.106339 C255.330147,98.1198778 253.242242,96.6212709 252.098228,94.2765275 C251.100848,92.2315056 250.811271,90.0813506 250.971276,87.8578791 C251.041826,86.8780208 251.287136,85.9106124 251.361375,84.8763431 C255.498452,77.4672308 262.1661,74.2357733 270.569365,73.6201917 C270.603487,72.8814938 270.672653,72.1404903 270.666198,71.4004091 C270.639453,68.2920679 271.603634,65.5705979 273.054285,62.7799613 C274.63912,59.7320255 277.047035,57.7944422 279.792944,56.2460354 C281.36164,55.3616268 283.27294,54.8368839 285.226662,54.8576338 C289.529278,54.9023615 293.832815,54.8687005 298.136353,54.8673171 C298.73764,54.8673171 299.338466,54.8673171 300.00892,54.8673171 C300.212269,52.884545 300.322014,51.0686946 300.597296,49.2777441 C301.116045,45.8964259 302.528885,43.0661339 305.23145,40.7522849 C307.459532,38.8437515 309.273077,36.4515138 311.416777,34.1150704 C309.506399,32.1488982 307.61631,30.203476 305.583738,28.1114208 C302.692118,30.9947404 299.998776,33.6760939 297.310044,36.3615974 C294.638835,39.0300398 291.972237,41.7030934 289.350367,44.3272692 C283.985815,41.2203114 283.772783,33.1333677 287.753083,29.2900175 C291.443344,25.7274831 294.970834,21.9961826 298.631124,18.4013706 C300.837534,16.2346156 303.438194,15.0034524 306.668729,15.1855908 C309.349621,15.3368348 312.046653,15.2446129 314.735845,15.2100296 C318.907044,15.1560798 322.379662,16.5993535 325.306787,19.6302282 C328.268034,22.6956862 331.41972,25.5767002 334.554344,28.603425 C336.907388,28.603425 339.285331,28.6038861 341.662813,28.6029639 C352.114328,28.5988139 362.565381,28.595125 373.016896,28.5886695 C374.653375,28.5877472 376.123854,28.826141 377.165962,26.7529913 C377.959532,25.1732291 379.880977,24.1726209 381.258312,22.8686023 C382.314253,21.8689163 383.225867,20.7055363 384.343136,19.7856222 C385.379711,18.9316468 386.543552,18.1800379 387.75581,17.6022673 C390.491113,16.299171 393.229644,14.985008 396.418219,15.1685297 C398.40883,15.2833461 400.412352,15.173602 402.40988,15.1620742 C404.608912,15.1496242 406.811173,15.1957352 409.005133,15.0846078 C409.717087,15.0491023 410.577979,14.7779697 411.078744,14.3057933 C413.217371,12.2907435 415.292826,10.2032994 417.305109,8.06144435 C420.852888,4.28587729 425.11216,1.75622891 430.135951,0.53244349 C430.791188,0.372438388 431.511903,0.463738129 432.202184,0.463277019 C440.194139,0.459588141 448.1884,0.562415627 456.178049,0.422699356 C460.930247,0.339699592 464.987091,1.92914508 468.543631,4.86733675 C470.704852,6.65229279 472.653502,8.69915921 474.657486,10.6685592 C476.337309,12.3193323 477.959032,14.0291274 479.572455,15.677595 L486.406102,15.677595 C495.473827,15.677595 504.542012,15.6563839 513.610197,15.6886616 C516.948632,15.7006505 519.98089,16.6201034 522.854066,18.4691537 C524.726633,19.6744947 526.292561,21.120074 527.815146,22.6666363 C528.676038,23.5404393 529.436869,24.5124588 530.174184,25.3609008 L532.536449,25.3609008 C539.837201,25.3609008 547.137952,25.324012 554.437782,25.3751952 C558.636647,25.4047063 561.723778,27.2855731 563.443256,31.211462 C564.34657,33.2730839 563.93111,35.4200112 563.946788,37.6301105 C559.888561,41.6929489 555.82895,45.7567096 551.747206,49.8430647 L530.357705,49.8430647 C530.30975,50.6098903 530.2392,51.2070275 530.239661,51.8037036 C530.241967,55.261566 530.321739,58.7203506 530.260872,62.1768297 C530.168189,67.4339426 528.566755,72.2239512 525.136559,76.2254621 C522.990093,78.7297494 520.524078,80.9629042 518.169651,83.2845921 C515.354115,86.0613953 512.488317,88.7870153 509.674625,91.5647408 C507.648509,93.5650351 505.181571,94.7159652 502.485001,95.4472853 C499.852525,96.1615444 497.154572,95.8728897 494.480135,95.9051674 C492.18058,95.932834 489.881026,95.9111618 487.433455,95.9111618 C487.266994,96.445127 487.009234,96.9205312 486.987101,97.4065409 C486.919318,98.864109 486.926695,100.325827 486.934995,101.78524 C486.96174,106.306421 485.232578,110.096283 482.086887,113.25719 C479.844049,115.510173 477.508989,117.670011 475.239406,119.896249 C474.274765,120.842908 473.371912,121.852738 472.139826,123.151223 C472.033771,125.259417 471.899127,127.77016 471.785694,130.281364 C471.753877,130.971646 471.799066,131.664694 471.784772,132.355897 C471.6801,137.42995 468.013816,141.003551 462.972502,141.16955 C459.8056,141.2733 457.474229,140.011703 455.408457,137.694627 C453.449663,135.497899 451.196219,133.564466 449.084797,131.502844 C447.676568,130.127354 446.284938,128.733419 444.892387,127.340867 C442.101289,124.548847 439.312958,121.754061 436.526472,118.956969 C435.365397,117.791283 434.465772,116.336021 432.602427,115.521701 C425.186859,122.329987 418.42284,129.939682 411.563831,136.145298 C408.176058,138.310208 405.466115,137.738432 402.467979,136.601335 C398.248364,132.416303 393.801421,128.005787 389.306983,123.548239 C387.696327,123.548239 386.065381,123.717927 384.484697,123.509045 C382.008537,123.182118 379.561889,122.619103 377.114318,122.103121 C376.778169,122.031649 376.527325,121.618956 376.200859,121.425289 C372.834297,119.43099 370.089771,116.710903 367.397812,113.926261 C367.196768,113.718761 366.926558,113.578584 366.69877,113.413968 C365.271635,114.86923 363.910439,116.256249 362.431198,117.764539 C369.038441,124.848107 376.277404,131.477483 383.076929,138.715524 C382.592764,139.367994 382.303187,139.911643 381.875738,140.306353 C380.315342,141.745937 378.459836,142.942517 377.178412,144.590985 C375.33259,146.964778 372.856891,148.087119 370.187065,148.877923 C366.97728,149.828731 363.745361,149.624459 360.514826,148.629846 C357.506546,147.703937 355.296908,145.717937 353.175803,143.581615 C351.134931,141.526449 349.316313,139.2292 347.14172,137.334961 C344.91502,135.395533 342.927176,133.232006 340.777482,131.226178 C339.71278,130.232487 338.707099,129.174701 337.540952,128.012704 C335.746313,129.762616 334.069257,131.398633 332.233579,133.188662 C333.362375,134.370947 334.379123,135.478994 335.44152,136.540469 C340.320983,141.415783 345.212897,146.279569 350.102045,151.144738 C353.508263,154.534357 356.862837,157.977002 360.340066,161.29146 C364.466998,165.225187 364.203243,172.758338 360.585376,175.891579 C358.529748,177.671463 356.709287,179.702191 354.743576,181.568302 C352.839192,183.376314 351.019653,185.358164 349.188125,187.286525 C347.636952,188.918854 346.036901,190.504149 344.448838,192.119878 L344.448838,197.48489 C344.448377,208.704614 344.470511,219.924799 344.435927,231.144523 C344.422094,235.610832 343.314047,239.889009 341.410125,243.87807 C339.373403,248.143335 336.511755,251.899997 332.567422,254.589189 C328.462162,257.389048 323.996774,259.227954 318.9052,259.749469 C315.678353,260.080546 312.686212,259.825552 309.783065,258.644189 C308.11523,257.965435 306.62354,256.843094 305.076056,255.883525 C304.441107,255.489276 303.867026,254.997733 303.469088,254.702161 C302.913912,253.808531 302.479546,253.116866 302.051636,252.421051 C300.307719,249.585226 299.282672,246.519307 299.2693,243.176722 C299.239789,236.029981 299.260078,228.882779 299.260078,221.736038 L299.260078,219.350717 C298.06027,218.159671 296.827262,216.956174 295.61731,215.729622 C294.548919,214.646475 293.281328,213.6763 292.502052,212.40917 C291.204028,210.296826 290.124109,208.031394 289.141945,205.748439 C288.198515,203.555862 288.139031,201.194519 288.166698,198.809198 C288.244165,192.127717 288.193442,185.445313 288.193442,178.600138 C287.559878,178.547111 286.978879,178.459039 286.396498,178.456272 C283.32274,178.441055 280.248521,178.481172 277.175685,178.43875 C272.110855,178.368661 267.137785,177.532669 262.536832,175.457214 C258.328744,173.559286 254.281122,171.257426 251.074103,167.774202 C249.103781,165.634192 246.985443,163.623292 245.106881,161.407659 C243.151315,159.101649 241.851907,156.360351 240.754927,153.560032 C239.098159,149.331655 239.032221,144.860273 239.381281,140.44653 C239.687919,136.574591 241.104909,133.00099 243.045259,129.550966 C246.120862,124.082665 250.967587,120.279893 255.123108,115.823266 C257.788323,112.964386 261.049292,111.074297 264.817942,110.165449 C266.728781,109.705262 268.72262,109.481623 270.689714,109.389862 C273.45084,109.261213 276.229949,109.221096 278.985541,109.394474 C281.461239,109.549868 283.98766,109.570617 286.338398,110.639009 C288.342842,111.550162 290.247225,112.589042 291.788716,114.189093 C293.145301,115.595939 294.423036,117.083941 295.852476,118.410092 C296.291453,118.817713 297.115456,118.965269 297.764238,118.967574 C307.212838,119.001696 316.661901,118.991091 326.262207,118.991091" id="Fill-1"></path>
                        <path d="M118.311599,21.420902 C118.832653,22.5289489 119.648357,23.6863345 119.909345,24.9576142 C120.272238,26.7255092 120.314199,28.5800928 120.288377,30.3945599 C120.280077,30.9667972 119.640518,31.5496399 119.24258,32.0928273 C117.30223,34.7423642 115.343436,37.3780679 113.403086,40.0276048 C113.327464,40.1308934 113.37588,40.3250206 113.344525,40.8197914 C117.079514,44.4104535 120.976814,48.1578928 125.008297,52.0339818 L141.476373,52.0339818 C141.581506,50.5040195 141.804222,49.0953291 141.698166,47.5483057 C141.456545,44.0383378 141.53355,40.4960923 141.665428,36.9741357 C141.745661,34.8479584 143.017401,33.0948189 146.025221,33.7740336 C149.143706,36.8943637 152.38623,40.1387322 155.590021,43.3439065 C158.17777,43.3439065 160.635946,43.4103063 163.08905,43.3300732 C167.649887,43.1802125 173.226088,46.8787742 172.989078,53.046579 C172.942044,54.2722088 172.982161,55.5015275 172.982161,56.8539626 C170.976333,58.8897624 168.950678,60.9739787 166.894589,63.0273006 C162.342974,67.5733822 157.770149,72.0987138 153.21715,76.643412 C149.381639,80.4715456 145.582094,84.3351846 141.727677,88.1439516 C139.036179,90.803633 136.038044,93.1940262 133.613528,96.0722736 C130.570203,99.6850689 126.902075,102.09529 122.436227,103.321842 C120.624065,103.819379 118.708154,104.131551 116.831898,104.172128 C111.608907,104.2851 106.381767,104.210862 101.15647,104.210862 L98.7503993,104.210862 L98.7503993,120.810353 C100.6285,120.810353 102.378411,120.826492 104.128323,120.807587 C109.982573,120.744876 114.665143,123.104375 118.56521,127.419901 C121.000792,130.11601 123.737017,132.540065 126.337677,135.086774 C128.231455,136.941358 130.123849,138.796402 132.003794,140.638075 C137.713255,140.638075 143.318967,140.610869 148.924679,140.647297 C153.1964,140.674964 156.973812,142.337265 160.260141,144.847546 C162.643157,146.668008 164.584429,149.063012 166.748879,151.174895 C169.085783,153.455544 171.476176,155.681782 173.794636,157.980415 C174.570223,158.749085 175.450021,159.018834 176.481984,159.025289 C178.608623,159.039584 180.735722,159.040967 182.860977,159.099067 C183.376037,159.113361 183.957035,159.210656 184.384023,159.472105 C186.743061,160.916762 188.972527,162.563846 189.989735,165.257188 C190.4905,166.58334 190.825727,168.049208 190.857082,169.460204 C190.963138,174.144619 190.897199,178.833183 190.897199,183.835763 C189.33542,185.410453 187.607642,187.100882 185.942574,188.850794 C184.894472,189.952385 183.962108,191.162337 182.939827,192.289751 C180.225274,195.284198 177.478904,198.250517 174.766656,201.246809 C172.540879,203.705446 170.353835,206.199128 168.13313,208.661454 C167.016322,209.899995 165.858476,211.102108 164.724145,212.324972 C161.315161,216.000017 157.897876,219.667684 154.504108,223.357485 C151.380089,226.754942 148.302642,230.196204 145.161562,233.577983 C144.213981,234.597497 143.834027,235.686639 143.840021,237.091179 C143.888899,247.541772 143.869532,257.992825 143.86031,268.443879 C143.859388,269.250821 143.772699,270.057763 143.717366,271.004422 C140.775486,270.428034 138.460253,269.172894 136.261221,267.744837 C132.335332,265.196744 128.999202,261.999408 126.678898,257.904292 C123.972183,253.127656 122.127283,248.097409 122.166477,242.455269 C122.254088,229.853138 122.194144,217.250085 122.194144,204.647493 L122.194144,202.172256 C119.976667,200.074667 117.655901,197.976157 115.448569,195.763752 C113.136564,193.447136 110.741099,191.172482 108.73066,188.606406 C106.113862,185.266587 104.61756,181.407098 104.659521,177.040849 C104.711627,171.585459 104.676121,166.129147 104.670588,160.673296 C104.665055,155.655499 106.698549,151.64661 110.424316,148.315553 C112.431527,146.520914 114.139478,144.391048 116.1596,142.221987 C112.533432,138.568153 108.98842,134.995935 105.435569,131.41634 C103.071459,131.41634 100.769138,131.407579 98.4672779,131.418646 C95.2999146,131.433862 92.1952623,130.671648 89.4447424,129.370396 C86.608456,128.028105 84.0110244,126.020433 81.8797749,123.585773 C81.65337,123.32663 81.6316979,122.888575 81.5546925,122.653409 C80.7763392,122.085322 79.9444971,121.674934 79.3800987,121.030303 C77.6269592,119.028164 75.7078202,117.155136 73.8661477,115.268275 C71.9797475,113.335302 69.9338033,111.471497 67.93812,109.59893 C67.4147604,109.108309 67.0486392,108.449844 66.4044688,107.594946 C66.0600198,107.354247 65.3356163,106.962304 64.7541569,106.418194 C63.4090996,105.159364 61.9667481,103.95264 60.8642346,102.496916 C58.686413,99.6200524 55.7025714,97.5782582 53.3624392,94.8554048 C51.3326338,92.4926782 49.8183492,89.8915578 48.4221087,87.1751599 C46.2862481,83.0205606 45.6365444,78.5468733 45.6462277,73.9339308 C45.6595999,67.6333265 45.6494555,61.3327221 45.6494555,54.6904354 C44.3597314,53.5072277 42.8980133,52.1902981 41.4621174,50.8457019 C38.2348099,47.8235882 35.0526911,44.7525969 31.7903393,41.7687554 C29.1776911,39.3792844 26.4386989,37.1595018 22.7424427,36.6490533 C17.9754896,35.9915107 13.4358636,36.135838 9.85626815,40.0363659 C9.3739473,40.562031 8.70487697,40.9161634 7.88594596,41.5257505 C7.35105859,42.8795689 2.83356585,47.037396 0.975293344,47.5137224 C0.807449376,46.9926684 0.489283612,46.4568588 0.484672514,45.9182825 C0.444555961,41.4616563 0.224606585,36.987969 0.532627933,32.5520927 C0.814366023,28.4989375 2.86814909,25.2139912 6.36566694,22.9610088 C9.18350895,21.1451583 12.33335,20.085528 15.4730467,19.0162144 C15.9585953,18.850676 16.5299103,18.9092369 17.0615699,18.9092369 C49.0293904,18.9046258 80.9972108,18.9106202 112.96457,18.8847926 C114.180517,18.8847926 115.20418,19.1444029 116.144844,19.9010841 C116.799159,20.4276715 117.519874,20.870798 118.311599,21.420902" id="Fill-3"></path>
                        <path d="M560.174633,221.031278 C561.936534,221.481782 563.812789,221.940586 565.341368,223.372332 C567.183041,225.097805 568.087277,227.178333 568.116327,229.660487 C568.147683,232.271291 568.107105,234.883016 568.15506,237.493359 C568.174888,238.551606 568.43726,239.60847 568.426193,240.664411 C568.413743,241.856841 568.218232,243.047427 568.087738,244.391101 C565.090064,244.000079 562.794659,243.262765 561.045208,240.679167 C559.509252,238.411429 558.948542,236.134007 558.953153,233.543492 C558.959609,230.241485 558.928253,226.939939 558.919031,223.637932 C558.915803,222.639168 558.803293,221.585993 560.174633,221.031278 Z M509.962081,190.412988 C515.261155,190.51351 520.564379,190.374715 525.864375,190.461865 C529.067244,190.513971 531.968085,191.571295 534.298534,193.859322 C537.622675,197.123057 541.033043,200.311632 544.167206,203.750589 C546.518866,206.330498 548.185778,209.376128 549.354692,212.755602 C550.677154,216.579124 551.111059,220.425241 551.04927,224.421219 C550.959815,230.179097 551.026215,235.939281 551.026215,242.083108 L548.534838,242.083108 C545.461541,242.083108 542.388706,242.073424 539.31587,242.086015 C536.557511,242.097402 534.019102,241.401587 531.405992,240.445246 C528.258918,239.292932 525.995791,237.29356 523.828575,234.945128 C522.7007,233.723187 521.371782,232.686612 520.061769,231.50156 C514.287752,230.664185 508.371252,231.212905 502.472736,231.074111 C500.483969,231.027078 498.519641,231.037683 496.66183,230.094253 C494.064398,228.774557 491.6717,227.161594 489.961904,224.811779 C488.905041,223.359744 488.281159,221.591849 487.571511,220.180853 C487.369084,218.902657 487.091957,217.853171 487.055068,216.794924 C486.881691,211.829232 488.081038,207.235657 491.451289,203.49375 C494.273281,200.36097 497.30185,197.406179 500.346558,194.484587 C503.004856,191.933267 506.103053,190.339671 509.962081,190.412988 Z" id="Combined-Shape"></path>
                        <path d="M177.7398,8.62173887 C181.039963,5.1375932 184.861641,4.60916137 188.980734,4.65388902 C198.119931,4.75210541 207.260971,4.65481124 216.401551,4.69262224 C217.993302,4.69907778 219.584131,4.9775881 221.202626,5.13298211 C223.207071,6.33740091 225.276531,7.45051997 226.553345,9.61128051 C227.585769,11.3579644 228.281123,13.1327761 228.262151,15.194398 C228.222101,19.4951691 228.250229,23.7959403 228.250229,28.3042108 C226.667239,29.9084118 225.006782,31.5988404 223.337565,33.28143 C221.690942,34.9409642 219.975613,36.5368652 218.402307,38.2627992 C216.836839,39.9799721 214.910783,41.2959795 213.424165,43.120591 C211.929247,44.9553469 210.099102,46.5171258 208.415129,48.1983322 C206.762051,49.8491053 205.117733,51.5086394 203.452204,53.1465015 C201.79267,54.7779079 200.111925,56.3876423 198.439941,58.0070707 C196.817757,58.011671 196.226614,56.5444196 195.3067,55.6590888 C193.074467,53.5117004 190.731568,51.4486952 189.123217,48.714314 C187.631988,46.1800545 186.610169,43.5734008 186.664119,40.5614316 C186.702391,38.4287988 186.469992,36.2915548 186.349181,33.9860058 C183.972621,31.1298917 181.209651,28.4536104 178.366448,25.8391178 C177.035685,24.6148713 175.790689,23.211253 174.832963,21.6845185 C173.158213,19.0160761 173.33159,16.1613453 174.754114,13.4085197 C175.273784,12.4037615 176.013866,11.5142807 176.621147,10.5524056 C177.06289,9.85244094 177.45345,9.11973746 177.7398,8.62173887" id="Fill-7"></path>
                        <path d="M125.658277,7.42594282 C127.755405,7.42594282 129.512694,7.42640393 131.270445,7.42594282 C135.112873,7.42409838 138.955762,7.44023723 142.797729,7.41441508 C146.190114,7.39135959 149.262949,8.26101268 151.898192,10.4761842 C154.857133,12.9629493 156.098902,16.2123901 156.391246,20.2909063 L153.720498,20.2909063 C148.571746,20.2909063 143.422533,20.293673 138.273319,20.2890619 C136.303458,20.2876786 134.28887,20.4716614 132.627491,19.0519043 C129.312111,18.4372449 127.6369,15.9587797 126.374381,13.2271653 C125.596489,11.5454978 125.367778,9.63650322 125.658277,7.42594282" id="Fill-9"></path>
                        <path d="M549.732479,78.0419119 C548.088622,79.6977572 546.553588,81.2567695 545.005181,82.8005651 C542.573749,85.2250804 540.129867,87.6366847 537.696591,90.0588945 C536.502316,91.2476356 535.332481,92.4612766 534.129445,93.6417177 C531.132693,96.5822149 525.684219,96.7878699 522.366073,94.0912997 C522.151657,93.9165391 522.054824,93.5960678 521.838563,93.2359411 C522.757094,92.2929715 523.628131,91.3744408 524.52545,90.4826544 C528.953488,86.0836669 533.341409,81.6441017 537.834924,77.3133584 C541.01197,74.2520505 546.581716,74.4793776 549.732479,78.0419119" id="Fill-11"></path>
                        <path d="M510.443203,166.40775 C513.964699,166.49121 517.4885,166.442333 521.01184,166.458933 C521.533816,166.461699 522.055331,166.509655 522.558863,166.535477 C522.92729,171.938301 520.933451,175.233852 515.984821,177.271958 C515.641755,177.413518 515.253501,177.515424 514.885996,177.516346 C509.914771,177.532485 504.944008,177.527412 499.949266,177.527412 C498.85413,175.764129 499.676289,174.186211 500.25821,172.691754 C500.82353,171.239258 501.680733,169.900195 502.409748,168.511333 C504.775702,166.422505 507.566339,166.339505 510.443203,166.40775 Z M467.563219,158.437006 C469.558441,160.336317 471.488186,162.304795 473.437297,164.2516 C476.720399,167.531474 479.995662,170.818265 483.465513,174.294572 C481.310747,176.682659 478.823982,177.375246 476.035651,176.96117 C473.818635,176.632398 471.952523,175.660379 470.382444,173.887873 C468.33235,171.57264 465.946107,169.558052 463.759063,167.359019 C460.989177,164.574377 458.274623,161.734863 455.559609,158.943304 C458.252029,155.259498 464.518511,155.538008 467.563219,158.437006 Z M494.69658,139.928611 C495.239767,143.839284 494.713641,147.788689 494.737619,151.728872 C494.740846,152.282204 494.398703,152.904241 494.058865,153.381951 C491.814183,156.535942 488.857547,158.188098 484.625942,157.584967 C484.625942,154.274198 484.478848,151.128046 484.659603,148.000338 C484.947796,143.027269 489.46575,138.869442 494.69658,139.928611 Z" id="Combined-Shape"></path>
                        <path d="M351.38144,228.487101 C351.38144,225.253338 351.328412,222.504662 351.400345,219.759214 C351.448301,217.934603 351.562195,216.097541 351.844394,214.297369 C352.430465,210.563302 357.398923,206.233942 361.275934,206.527669 C362.170487,206.595452 363.074723,206.537813 364.126515,206.537813 C364.186459,207.513521 364.267614,208.260058 364.271764,209.007056 C364.285598,211.618321 364.31142,214.230969 364.259776,216.841312 C364.210898,219.295338 363.94161,221.698181 362.253948,223.701242 C361.933938,224.080735 361.854166,224.663117 361.65635,225.169416 C360.078432,226.036763 358.595964,227.132821 356.932741,227.686153 C355.313323,228.224729 353.509462,228.207207 351.38144,228.487101" id="Fill-15"></path>
                        <path d="M266.801221,37.8486765 C267.74373,38.1668423 267.908807,38.7962572 267.908346,39.5363384 C267.905118,43.9131926 267.931402,48.2909691 267.900507,52.6678234 C267.875607,56.1902412 263.192576,60.7958059 259.43822,59.7108145 C259.357065,58.9951721 259.189221,58.1850022 259.186915,57.3748322 C259.17631,53.8431923 259.086393,50.306019 259.262537,46.7822178 C259.526753,41.4859106 261.475403,39.5967438 265.640608,38.2364699 C266.065751,38.0976758 266.48905,37.9528873 266.801221,37.8486765 Z M255.781389,49.5372106 C255.845022,51.8132486 256.451381,54.1252531 254.96753,56.2887803 C254.271715,57.303683 253.358257,57.97137 252.177816,58.0543698 C250.598054,58.1659583 249.004458,58.0820363 247.209358,58.0820363 L247.209358,53.1633781 C249.123885,49.3707499 250.472632,48.9769622 255.781389,49.5372106 Z" id="Combined-Shape"></path>
                    </g>
                    <g id="Group-7" transform="translate(458.000000, 101.000000)">
                        <path d="M19.3548387,5.85146287 C26.8125473,5.85146287 32.8582146,11.8971302 32.8582146,19.3548387 L32.8582146,19.3548387 L32.8582146,32.8582146 L19.3548387,32.8582146 C11.8971302,32.8582146 5.85146287,26.8125473 5.85146287,19.3548387 C5.85146287,11.8971302 11.8971302,5.85146287 19.3548387,5.85146287 Z" id="Combined-Shape" fill="#FF854A" transform="translate(19.354839, 19.354839) rotate(-315.000000) translate(-19.354839, -19.354839) "></path>
                        <circle id="Oval" fill="#FFFFFF" cx="19.3879639" cy="19.3879639" r="6.4516129"></circle>
                    </g>
                    <g id="Group-7" transform="translate(539.000000, 205.000000)">
                        <path d="M19.3548387,5.85146287 C26.8125473,5.85146287 32.8582146,11.8971302 32.8582146,19.3548387 L32.8582146,19.3548387 L32.8582146,32.8582146 L19.3548387,32.8582146 C11.8971302,32.8582146 5.85146287,26.8125473 5.85146287,19.3548387 C5.85146287,11.8971302 11.8971302,5.85146287 19.3548387,5.85146287 Z" id="Combined-Shape" fill="#FF854A" transform="translate(19.354839, 19.354839) rotate(-315.000000) translate(-19.354839, -19.354839) "></path>
                        <circle id="Oval" fill="#FFFFFF" cx="19.3879639" cy="19.3879639" r="6.4516129"></circle>
                    </g>
                    <g id="Group-7" transform="translate(141.000000, 45.000000)">
                        <path d="M19.3548387,5.85146287 C26.8125473,5.85146287 32.8582146,11.8971302 32.8582146,19.3548387 L32.8582146,19.3548387 L32.8582146,32.8582146 L19.3548387,32.8582146 C11.8971302,32.8582146 5.85146287,26.8125473 5.85146287,19.3548387 C5.85146287,11.8971302 11.8971302,5.85146287 19.3548387,5.85146287 Z" id="Combined-Shape" fill="#FF854A" transform="translate(19.354839, 19.354839) rotate(-315.000000) translate(-19.354839, -19.354839) "></path>
                        <circle id="Oval" fill="#FFFFFF" cx="19.3879639" cy="19.3879639" r="6.4516129"></circle>
                    </g>
                    <g id="Group-7" transform="translate(112.000000, 77.000000)">
                        <path d="M19.3548387,5.85146287 C26.8125473,5.85146287 32.8582146,11.8971302 32.8582146,19.3548387 L32.8582146,19.3548387 L32.8582146,32.8582146 L19.3548387,32.8582146 C11.8971302,32.8582146 5.85146287,26.8125473 5.85146287,19.3548387 C5.85146287,11.8971302 11.8971302,5.85146287 19.3548387,5.85146287 Z" id="Combined-Shape" fill="#FF854A" transform="translate(19.354839, 19.354839) rotate(-315.000000) translate(-19.354839, -19.354839) "></path>
                        <circle id="Oval" fill="#FFFFFF" cx="19.3879639" cy="19.3879639" r="6.4516129"></circle>
                    </g>
                    <g id="Group-7" transform="translate(53.000000, 60.000000)">
                        <path d="M19.3548387,5.85146287 C26.8125473,5.85146287 32.8582146,11.8971302 32.8582146,19.3548387 L32.8582146,19.3548387 L32.8582146,32.8582146 L19.3548387,32.8582146 C11.8971302,32.8582146 5.85146287,26.8125473 5.85146287,19.3548387 C5.85146287,11.8971302 11.8971302,5.85146287 19.3548387,5.85146287 Z" id="Combined-Shape" fill="#FF854A" transform="translate(19.354839, 19.354839) rotate(-315.000000) translate(-19.354839, -19.354839) "></path>
                        <circle id="Oval" fill="#FFFFFF" cx="19.3879639" cy="19.3879639" r="6.4516129"></circle>
                    </g>
                    <g id="Group-7" transform="translate(166.000000, 169.000000)">
                        <path d="M19.3548387,5.85146287 C26.8125473,5.85146287 32.8582146,11.8971302 32.8582146,19.3548387 L32.8582146,19.3548387 L32.8582146,32.8582146 L19.3548387,32.8582146 C11.8971302,32.8582146 5.85146287,26.8125473 5.85146287,19.3548387 C5.85146287,11.8971302 11.8971302,5.85146287 19.3548387,5.85146287 Z" id="Combined-Shape" fill="#FF854A" transform="translate(19.354839, 19.354839) rotate(-315.000000) translate(-19.354839, -19.354839) "></path>
                        <circle id="Oval" fill="#FFFFFF" cx="19.3879639" cy="19.3879639" r="6.4516129"></circle>
                    </g>
                    <g id="Group-7" transform="translate(297.000000, 45.000000)">
                        <path d="M19.3548387,5.85146287 C26.8125473,5.85146287 32.8582146,11.8971302 32.8582146,19.3548387 L32.8582146,19.3548387 L32.8582146,32.8582146 L19.3548387,32.8582146 C11.8971302,32.8582146 5.85146287,26.8125473 5.85146287,19.3548387 C5.85146287,11.8971302 11.8971302,5.85146287 19.3548387,5.85146287 Z" id="Combined-Shape" fill="#FF854A" transform="translate(19.354839, 19.354839) rotate(-315.000000) translate(-19.354839, -19.354839) "></path>
                        <circle id="Oval" fill="#FFFFFF" cx="19.3879639" cy="19.3879639" r="6.4516129"></circle>
                    </g>
                    <g id="Group-7" transform="translate(254.000000, 70.000000)">
                        <path d="M19.3548387,5.85146287 C26.8125473,5.85146287 32.8582146,11.8971302 32.8582146,19.3548387 L32.8582146,19.3548387 L32.8582146,32.8582146 L19.3548387,32.8582146 C11.8971302,32.8582146 5.85146287,26.8125473 5.85146287,19.3548387 C5.85146287,11.8971302 11.8971302,5.85146287 19.3548387,5.85146287 Z" id="Combined-Shape" fill="#FF854A" transform="translate(19.354839, 19.354839) rotate(-315.000000) translate(-19.354839, -19.354839) "></path>
                        <circle id="Oval" fill="#FFFFFF" cx="19.3879639" cy="19.3879639" r="6.4516129"></circle>
                    </g>
                    <g id="Group" transform="translate(426.000000, 73.000000)">
                        <rect id="Rectangle" fill="#000099" x="0" y="0" width="104" height="24" rx="12"></rect>
                        <text id="Footfall" font-family="ProximaNova-Semibold, Proxima Nova" font-size="12" font-weight="500" letter-spacing="0.4" fill="#FFFFFF">
                            <tspan x="8" y="16">FOOTFALL</tspan>
                        </text>
                        <text id="+2%" font-family="ProximaNova-Semibold, Proxima Nova" font-size="12" font-weight="500" letter-spacing="0.4" fill="#44DB6B">
                            <tspan x="72" y="16">+2%</tspan>
                        </text>
                    </g>
                    <g id="Group" transform="translate(129.000000, 143.000000)">
                        <rect id="Rectangle" fill="#000099" x="0" y="0" width="114" height="24" rx="12"></rect>
                        <text id="Footfall" font-family="ProximaNova-Semibold, Proxima Nova" font-size="12" font-weight="500" letter-spacing="0.4" fill="#FFFFFF">
                            <tspan x="8" y="16">FOOTFALL</tspan>
                        </text>
                        <text id="+3.6%" font-family="ProximaNova-Semibold, Proxima Nova" font-size="12" font-weight="500" letter-spacing="0.4" fill="#44DB6B">
                            <tspan x="72" y="16">+3.6%</tspan>
                        </text>
                    </g>
                    <g id="Group" transform="translate(259.000000, 19.000000)">
                        <rect id="Rectangle" fill="#000099" x="0" y="0" width="115" height="24" rx="12"></rect>
                        <text id="Footfall" font-family="ProximaNova-Semibold, Proxima Nova" font-size="12" font-weight="500" letter-spacing="0.4" fill="#FFFFFF">
                            <tspan x="8" y="16">FOOTFALL</tspan>
                        </text>
                        <text id="+4.2%" font-family="ProximaNova-Semibold, Proxima Nova" font-size="12" font-weight="500" letter-spacing="0.4" fill="#44DB6B">
                            <tspan x="72" y="16">+4.2%</tspan>
                        </text>
                    </g>
                </g>
            </g>
        </g>
    </g>
</svg>