<?xml version="1.0" encoding="UTF-8"?>
<svg version="1.1" viewBox="0 0 158 98" xmlns="http://www.w3.org/2000/svg">
    <defs>
        <linearGradient id="b" x1="76.448%" x2="76.448%" y1="-33.023%" y2="63.961%">
            <stop stop-color="#FF854A" stop-opacity=".3" offset="7.9181e-5"/>
            <stop stop-color="#FF854A" stop-opacity="0" offset="1"/>
        </linearGradient>
        <linearGradient id="a" x1="81.301%" x2="67.855%" y1="32.589%" y2="69.301%">
            <stop stop-color="#FF854A" stop-opacity=".8" offset="0"/>
            <stop stop-color="#FF854A" stop-opacity="0" offset=".99418"/>
            <stop stop-color="#44DB6B" stop-opacity="0" offset="1"/>
        </linearGradient>
    </defs>
    <g fill="none" fill-rule="evenodd">
        <g transform="translate(-957 -140)">
            <g transform="translate(875 130)">
                <g transform="translate(51 10)">
                    <path opacity="0.6" id="c" d="m189.38 0c-21.305 0-20.122 66.182-39.059 66.182-18.938 0-18.938-29.545-31.958-29.545-13.02 0-13.02 46.091-52.079 46.091-26.04 0-48.134 20.091-66.283 60.273h192.93c11.836-95.333 10.653-143-3.5509-143z" fill="url(#b)"/>
                    <path opacity="0.6" d="m1.1647 142.25h191.1c11.639-94.014 10.429-141.5-2.8881-141.5-4.6065 0-8.3823 3.3436-11.761 9.9331-2.6564 5.1813-4.6102 10.992-7.9358 22.614-0.14548 0.50842-0.6739 2.3585-0.78723 2.7547-3.1404 10.979-4.9079 16.314-7.2936 21.136-3.1618 6.3907-6.758 9.7437-11.282 9.7437-8.3762 0-13.151-4.6138-18.858-15.166-0.37795-0.69884-1.8194-3.4111-2.1685-4.0566-4.0125-7.4192-6.7515-10.323-10.931-10.323-2.6063 0-4.8265 2.116-7.4844 6.8206-1.0027 1.7748-6.292 12.577-8.1374 15.844-8.6647 15.337-19.329 23.427-36.457 23.427-25.458 0-47.17 19.538-65.118 58.773z" stroke="url(#a)" stroke-width="1.5"/>
                </g>
            </g>
        </g>
    </g>
</svg>