<?xml version="1.0" encoding="UTF-8"?>
<svg version="1.1" viewBox="0 0 114 117" xmlns="http://www.w3.org/2000/svg">
    <defs>
        <linearGradient id="a" x1="71.837%" x2="71.837%" y1="-7.5711%" y2="88.864%">
            <stop stop-color="#FF854A" stop-opacity=".3" offset="7.9181e-5"/>
            <stop stop-color="#FF854A" stop-opacity="0" offset="1"/>
        </linearGradient>
    </defs>
    <g fill="none" fill-rule="evenodd">
        <g transform="translate(-736 -542)" fill="url(#a)">
            <g transform="translate(610 504)">
                <path d="m142 130c1.1046 0 2 0.89543 2 2v38h-18v-38c0-1.1046 0.89543-2 2-2h14zm24-26c1.1046 0 2 0.89543 2 2v64h-18v-64c0-1.1046 0.89543-2 2-2h14zm24 15c1.1046 0 2 0.89543 2 2v49h-18v-49c0-1.1046 0.89543-2 2-2h14zm24-31c1.1046 0 2 0.89543 2 2v80h-18v-80c0-1.1046 0.89543-2 2-2h14zm24-50c1.1046 0 2 0.89543 2 2v130h-18v-130c0-1.1046 0.89543-2 2-2h14z"/>
            </g>
        </g>
    </g>
</svg>
