<?xml version="1.0" encoding="UTF-8"?>
<svg version="1.1" viewBox="0 0 79 101" xmlns="http://www.w3.org/2000/svg" xmlns:xlink="http://www.w3.org/1999/xlink">
    <defs>
        <linearGradient id="g" x1="56.888%" x2="44.916%" y1="8.2741%" y2="95.917%">
            <stop stop-color="#FF854A" stop-opacity=".3" offset="7.9181e-5"/>
            <stop stop-color="#FF854A" stop-opacity=".1" offset=".30418"/>
            <stop stop-color="#FF854A" stop-opacity=".02" offset=".84158"/>
            <stop stop-color="#FF854A" stop-opacity="0" offset="1"/>
        </linearGradient>
        <linearGradient id="f" x1="67.583%" x2="22.852%" y1="100%" y2="21.187%">
            <stop stop-color="#FF854A" offset="0"/>
            <stop stop-color="#FF854A" stop-opacity=".5" offset="1"/>
        </linearGradient>
        <linearGradient id="e" x1="86.442%" x2="50%" y1="100%" y2="100%">
            <stop stop-color="#FF854A" offset="0"/>
            <stop stop-color="#FF854A" stop-opacity=".5" offset="1"/>
        </linearGradient>
        <linearGradient id="d" x1="100%" x2="17.677%" y1="100%" y2="22.039%">
            <stop stop-color="#FF854A" offset="0"/>
            <stop stop-color="#FF854A" stop-opacity=".6" offset="1"/>
        </linearGradient>
        <circle id="c" cx="50" cy="67" r="20"/>
        <circle id="b" cx="50" cy="67" r="12"/>
        <circle id="a" cx="50" cy="67" r="4"/>
    </defs>
    <g fill="none" fill-rule="evenodd">
        <g transform="translate(-1060 -482)">
            <g transform="translate(904 469)">
                <g transform="translate(156 -29)">
                    <path d="m52 80h12v-28h-12v28zm-16 16h12v-12h-12v12zm46-48h-14v-46c0-1.104-0.896-2-2-2s-2 0.896-2 2v46h-14-14v-46c0-1.104-0.896-2-2-2s-2 0.896-2 2v48 14h-14c-1.104 0-2 0.896-2 2s0.896 2 2 2h16c1.104 0 2-0.896 2-2v-14h12v28h-14-32c-1.104 0-2 0.896-2 2s0.896 2 2 2h30v12h-14c-1.104 0-2 0.896-2 2v32c0 1.104 0.896 2 2 2s2-0.896 2-2v-30h12v46c0 1.104 0.896 2 2 2s2-0.896 2-2v-46h14c1.104 0 2-0.896 2-2v-14h12v46c0 1.104 0.896 2 2 2s2-0.896 2-2v-48-30h14c1.104 0 2-0.896 2-2s-0.896-2-2-2z" fill="url(#g)"/>
                    <g id="Oval" opacity=".1">
                        <use fill="#FFFFFF" xlink:href="#c"/>
                        <use fill="url(#f)" xlink:href="#c"/>
                    </g>
                    <g id="h" opacity=".2">
                        <use fill="#FFFFFF" xlink:href="#b"/>
                        <use fill="url(#e)" xlink:href="#b"/>
                    </g>
                    <use fill="#FFFFFF" xlink:href="#a"/>
                    <use fill="url(#d)" xlink:href="#a"/>
                </g>
            </g>
        </g>
    </g>
</svg>
